<svg xmlns="http://www.w3.org/2000/svg" width="32" height="32" viewBox="0 0 32 32"><circle cx="16" cy="16" r="15.5" fill="#dc2626"/><rect x="3" y="10" width="4" height="12" rx="1.5" fill="white"/><rect x="7" y="14" width="3" height="4" fill="white"/><rect x="25" y="10" width="4" height="12" rx="1.5" fill="white"/><rect x="22" y="14" width="3" height="4" fill="white"/><rect x="10" y="6" width="12" height="20" rx="2" fill="white"/><rect x="11.5" y="8" width="9" height="3.5" rx="0.5" fill="#dc2626"/><rect x="11.5" y="13.5" width="2.5" height="1.75" rx="0.25" fill="#dc2626"/><rect x="14.75" y="13.5" width="2.5" height="1.75" rx="0.25" fill="#dc2626"/><rect x="18" y="13.5" width="2.5" height="1.75" rx="0.25" fill="#dc2626"/><rect x="11.5" y="17" width="2.5" height="1.75" rx="0.25" fill="#dc2626"/><rect x="14.75" y="17" width="2.5" height="1.75" rx="0.25" fill="#dc2626"/><rect x="18" y="17" width="2.5" height="1.75" rx="0.25" fill="#dc2626"/><rect x="11.5" y="20.5" width="9" height="3" rx="0.5" fill="#dc2626"/></svg>
